<?xml version="1.0" standalone="no"?>
<!DOCTYPE svg PUBLIC "-//W3C//DTD SVG 20010904//EN"
 "http://www.w3.org/TR/2001/REC-SVG-20010904/DTD/svg10.dtd">
<svg version="1.0" xmlns="http://www.w3.org/2000/svg"
 width="2652.000000pt" height="458.000000pt" viewBox="0 0 2652.000000 458.000000"
 preserveAspectRatio="xMidYMid meet">
<metadata>
Created by potrace 1.16, written by Peter Selinger 2001-2019
</metadata>
<g transform="translate(0.000000,458.000000) scale(0.100000,-0.100000)"
fill="#000000" stroke="none">
<path d="M0 2290 l0 -2290 13260 0 13260 0 0 2290 0 2290 -13260 0 -13260 0 0
-2290z m26330 0 l0 -2100 -13070 0 -13070 0 0 2100 0 2100 13070 0 13070 0 0
-2100z"/>
<path d="M10894 3409 c-162 -15 -294 -56 -399 -124 -157 -100 -243 -233 -265
-412 -32 -254 101 -469 357 -577 85 -35 270 -90 458 -136 179 -43 290 -80 350
-118 134 -83 175 -147 175 -278 0 -48 -6 -99 -16 -127 -24 -70 -93 -140 -177
-182 -112 -54 -173 -67 -352 -72 -137 -4 -175 -2 -263 16 -181 38 -350 118
-449 214 -24 22 -44 39 -47 36 -2 -2 -24 -45 -49 -95 l-46 -91 47 -46 c93 -90
220 -153 403 -201 133 -34 230 -46 383 -46 428 0 706 160 791 454 24 83 17
278 -13 354 -29 75 -93 155 -165 209 -108 79 -118 83 -521 194 -419 116 -495
148 -566 243 -48 65 -64 114 -63 199 3 173 146 316 364 363 100 22 291 22 394
0 116 -25 247 -71 337 -118 43 -22 80 -39 82 -37 8 8 76 168 76 178 0 15 -126
87 -221 125 -94 38 -198 61 -339 76 -106 11 -149 11 -266 -1z"/>
<path d="M1620 2295 l0 -1105 115 0 115 0 2 864 3 863 422 -721 422 -721 63
-3 63 -3 425 724 425 724 3 -864 2 -863 115 0 115 0 0 1105 0 1105 -97 0 -98
0 -469 -805 c-257 -443 -471 -807 -475 -810 -4 -2 -219 359 -477 803 l-470
807 -102 3 -102 3 0 -1106z"/>
<path d="M4630 2295 l0 -1105 120 0 120 0 0 1105 0 1105 -120 0 -120 0 0
-1105z"/>
<path d="M5570 2295 l0 -1105 120 0 120 0 2 882 3 882 699 -882 698 -882 99 0
99 0 0 1105 0 1105 -115 0 -115 0 -2 -885 -3 -884 -700 884 -700 884 -102 0
-103 1 0 -1105z"/>
<path d="M8284 2304 c-275 -603 -501 -1101 -502 -1106 -2 -5 51 -7 124 -6
l128 3 128 290 127 290 611 0 611 0 128 -290 128 -290 132 -3 c72 -1 131 -1
131 1 0 2 -227 498 -505 1103 l-504 1099 -119 3 -119 3 -499 -1097z m885 224
c132 -296 241 -540 241 -543 0 -3 -230 -5 -511 -5 -338 0 -510 3 -507 10 2 6
116 266 253 578 l250 568 16 -36 c9 -19 125 -277 258 -572z"/>
<path d="M12790 3396 c0 -3 218 -500 484 -1103 l484 -1098 123 0 124 0 487
1095 c269 602 488 1098 488 1102 0 4 -55 8 -123 8 l-123 0 -424 -952 c-406
-910 -425 -950 -436 -922 -7 16 -195 443 -418 949 l-405 920 -130 3 c-72 1
-131 0 -131 -2z"/>
<path d="M15380 2313 c-271 -598 -497 -1096 -502 -1105 -8 -17 1 -18 119 -18
l128 0 129 295 129 295 610 -2 611 -3 127 -290 128 -290 130 -3 c72 -1 131 1
131 5 -1 4 -227 501 -504 1103 l-503 1095 -119 3 -120 3 -494 -1088z m869 242
c138 -308 251 -564 251 -568 0 -4 -230 -7 -511 -7 -281 0 -509 4 -507 9 45
116 504 1138 509 1133 4 -4 120 -259 258 -567z"/>
<path d="M17480 2295 l0 -1105 735 0 735 0 0 105 0 105 -615 0 -615 0 0 1000
0 1000 -120 0 -120 0 0 -1105z"/>
<path d="M19330 2295 l0 -1105 735 0 735 0 0 105 0 105 -615 0 -615 0 0 1000
0 1000 -120 0 -120 0 0 -1105z"/>
<path d="M21180 2295 l0 -1105 780 0 780 0 0 105 0 105 -660 0 -660 0 0 405 0
405 570 0 570 0 0 105 0 105 -570 0 -570 0 0 385 0 385 640 0 640 0 0 105 0
105 -760 0 -760 0 0 -1105z"/>
<path d="M22910 3363 c12 -21 211 -347 441 -724 l419 -685 0 -382 0 -382 120
0 120 0 0 376 0 375 440 720 c242 396 440 724 440 729 0 6 -49 10 -117 10
l-118 -1 -375 -614 c-206 -338 -377 -614 -380 -615 -3 0 -172 276 -375 613
l-371 612 -133 3 -133 3 22 -38z"/>
</g>
</svg>
